<?xml version="1.0" standalone="no"?>
<!DOCTYPE svg PUBLIC "-//W3C//DTD SVG 1.1//EN" "http://www.w3.org/Graphics/SVG/1.1/DTD/svg11.dtd">
<svg width="33mm" height="9mm" viewBox="-16 0 33 9" xmlns="http://www.w3.org/2000/svg" version="1.1">
<title>OpenSCAD Model</title>
<path d="
M 0.536484,8.01844 L 0.542102,8.01834 L 0.727478,8.01744 L 1.42949,8.00544 L 2.11049,7.99644 L 2.86349,7.97344
 L 3.61088,7.94269 L 4.24348,7.92044 L 4.97549,7.89444 L 6.11349,7.82644 L 6.94649,7.77044 L 7.58849,7.71544
 L 8.94333,7.57881 L 9.14449,7.56044 L 10.4105,7.39744 L 11.7365,7.17644 L 12.4655,7.02144 L 12.7505,6.95644
 L 12.9685,6.90644 L 13.5895,6.72344 L 14.0355,6.56244 L 14.5695,6.32744 L 14.7005,6.26244 L 15.0275,6.06944
 L 15.1925,5.95044 L 15.4075,5.76444 L 15.5975,5.57144 L 15.6945,5.43744 L 15.7885,5.29944 L 15.8635,5.15844
 L 15.9505,4.93944 L 16.0285,4.63944 L 16.0525,4.41044 L 16.0545,4.25844 L 16.0395,4.03144 L 15.9985,3.81044
 L 15.9045,3.53144 L 15.8435,3.39844 L 15.6885,3.14644 L 15.5435,2.97044 L 15.4405,2.85844 L 15.2025,2.64644
 L 14.9315,2.44844 L 14.5485,2.21744 L 11.7345,2.21744 L 11.7345,1.77444 L 12.9215,1.77444 L 12.9215,0.83744
 L 12.9125,0.83744 L 11.9745,0.68644 L 11.6415,0.638439 L 10.7585,0.523438 L 9.63548,0.37344 L 9.0705,0.307438
 L 7.51749,0.16544 L 6.16849,0.0774384 L 5.22649,0.022438 L -5.11252,0.022438 L -7.24751,0.162437 L -8.16852,0.243439
 L -8.47452,0.272438 L -8.55219,0.283511 L -9.96851,0.431438 L -11.1555,0.600437 L -12.6485,0.83744 L -12.6945,0.83744
 L -12.7006,1.77444 L -11.5175,1.77444 L -11.5175,2.21744 L -14.3305,2.21744 L -14.6355,2.40044 L -14.8195,2.52144
 L -15.1535,2.80344 L -15.3125,2.95644 L -15.3805,3.02744 L -15.5525,3.27144 L -15.5915,3.33444 L -15.6495,3.46444
 L -15.7595,3.73944 L -15.7825,3.81044 L -15.8215,4.03144 L -15.8375,4.18244 L -15.8375,4.33444 L -15.8315,4.48744
 L -15.7775,4.79044 L -15.7565,4.86544 L -15.6645,5.08544 L -15.5725,5.29944 L -15.3825,5.57144 L -15.1905,5.76444
 L -15.0515,5.88944 L -14.7735,6.08444 L -14.7205,6.12044 L -14.3775,6.31944 L -14.1675,6.41544 L -13.9805,6.49844
 L -13.6445,6.62744 L -12.7695,6.89044 L -12.4275,6.98944 L -11.6365,7.15744 L -10.4045,7.36744 L -10.3725,7.37244
 L -9.34651,7.51044 L -8.51852,7.60644 L -7.96289,7.64809 L -7.76651,7.67344 L -6.64752,7.76944 L -5.84651,7.83244
 L -4.80551,7.88444 L -2.64551,7.97144 L -1.81752,7.99744 L -0.361511,8.01844 L 0.109482,8.02044 z
" stroke="black" fill="lightgray" stroke-width="0.5"/>
</svg>
